<svg width="30" height="30" viewBox="0 0 30 30" fill="none" xmlns="http://www.w3.org/2000/svg">
<path d="M28.028 6.05662C29.2594 4.40829 29.9964 2.69693 30 1.47428C29.9985 1.07835 29.9191 0.768943 29.768 0.538454C29.7521 0.510267 29.7086 0.436493 29.6318 0.363797C29.5554 0.288013 29.4868 0.247523 29.4719 0.239337C29.2302 0.077965 28.9193 0.00012207 28.5232 0.00012207C27.3036 0.00218089 25.5918 0.738747 23.943 1.97217C22.6102 2.96948 21.2774 4.37398 19.4323 6.31888C19.1194 6.64873 18.79 6.99554 18.4417 7.35922L14.8679 6.28814L14.8786 6.2779C15.0272 6.1278 15.1117 5.92138 15.1097 5.71853C15.1117 5.50442 15.0251 5.298 14.8761 5.14947L14.2307 4.50305C14.0816 4.35295 13.8757 4.26692 13.6627 4.26692C13.4475 4.26692 13.2467 4.34991 13.0966 4.50153L12.1311 5.4676L11.6199 5.31496C11.73 5.17511 11.7909 5.00045 11.7889 4.82834C11.7909 4.61114 11.7069 4.40883 11.5558 4.25874L10.9074 3.61026C10.7593 3.46173 10.5544 3.37668 10.3393 3.37668C10.1252 3.37668 9.92492 3.46021 9.77639 3.61129L8.89027 4.49692L5.25656 3.40844C5.17513 3.38438 5.08906 3.37158 4.99685 3.37158C4.73871 3.37467 4.4995 3.47045 4.32484 3.64359L3.04735 4.92158C2.90235 5.06653 2.82093 5.2627 2.82249 5.44863C2.81789 5.72265 2.9695 5.97569 3.2123 6.10579L10.8536 10.3746C10.891 10.3956 10.9991 10.4756 11.0391 10.5155L13.2176 12.6935C11.1799 14.8402 9.36458 16.9194 7.94988 18.728C7.81772 18.896 7.69272 19.0599 7.56978 19.2223L1.65823 18.6855C1.62956 18.6819 1.59725 18.6793 1.55627 18.6793C1.28529 18.685 1.02049 18.7921 0.823824 18.9821L0.228091 19.5773C0.0810817 19.7212 -0.00190824 19.9158 0.000150576 20.1038C-0.00445725 20.3907 0.16917 20.656 0.429904 20.7723L4.58862 22.7474C4.62445 22.7653 4.71768 22.8314 4.74793 22.8616L5.09317 23.2043C4.98509 23.5086 4.93028 23.7723 4.92719 24.0039C4.92616 24.3138 5.02607 24.5791 5.21714 24.7702L5.232 24.783L5.23606 24.7861C5.43224 24.9761 5.68631 25.0729 6.00082 25.0729C6.22724 25.0694 6.48846 25.0156 6.79376 24.908L7.1441 25.2579C7.17126 25.2866 7.2363 25.3777 7.25322 25.4141L9.22424 29.5637C9.34463 29.8285 9.60429 30 9.88703 30H9.8911C10.0868 30 10.2737 29.9216 10.4166 29.7783L11.0267 29.1662C11.2075 28.9756 11.314 28.7129 11.3181 28.4358C11.3181 28.402 11.3166 28.3758 11.3156 28.3615L10.7772 22.4284C10.9391 22.3065 11.103 22.181 11.2715 22.0499C13.0827 20.633 15.1624 18.8161 17.3049 16.7816L19.485 18.9637C19.5203 18.9975 19.6028 19.1056 19.6269 19.1506L23.8876 26.7782C24.0177 27.0245 24.2682 27.1767 24.5458 27.1767C24.744 27.1767 24.9325 27.0983 25.077 26.9529L26.3636 25.6671C26.5307 25.4925 26.6244 25.2553 26.6269 24.9962C26.6269 24.9091 26.6147 24.8246 26.5921 24.7452L25.5036 21.1104L26.3892 20.2233C26.5383 20.0752 26.6229 19.8693 26.6229 19.6578C26.6229 19.4452 26.5404 19.2455 26.3903 19.0933L25.7408 18.4443C25.5923 18.2953 25.3868 18.2103 25.1753 18.2103C24.996 18.2103 24.8209 18.2702 24.6841 18.3783L24.5319 17.8691L25.4985 16.9026C25.647 16.7535 25.7316 16.5476 25.7316 16.3355C25.7316 16.1219 25.6491 15.9217 25.4985 15.7716L24.852 15.1251C24.703 14.974 24.496 14.8885 24.2835 14.8885C24.0699 14.8885 23.8629 14.975 23.7169 15.1241L23.7103 15.1302L22.6397 11.5569C23.0095 11.2045 23.3604 10.869 23.6959 10.553C25.6339 8.71402 27.0332 7.38632 28.028 6.05662Z" fill="white"/>
</svg>
