<svg width="30" height="30" viewBox="0 0 30 30" fill="none" xmlns="http://www.w3.org/2000/svg">
<path d="M11.4437 26.4196C11.4437 26.4274 11.4431 26.4352 11.4431 26.443C11.4431 28.4074 13.0356 29.9999 15.0001 29.9999C16.9646 29.9999 18.5571 28.4074 18.5571 26.443C18.5571 26.4352 18.5565 26.4274 18.5565 26.4196H11.4437Z" fill="white"/>
<path d="M26.3566 21.9734L23.1553 17.2708C23.1553 15.8313 23.1553 12.3138 23.1553 11.4039C23.1553 7.44719 20.3375 4.14907 16.5993 3.40582V1.59916C16.5992 0.716015 15.8832 0 15 0C14.1168 0 13.4009 0.716015 13.4009 1.59916V3.40589C9.6626 4.1492 6.84479 7.44732 6.84479 11.4039C6.84479 12.9529 6.84479 16.3731 6.84479 17.2709L3.64352 21.9735C3.30631 22.4688 3.27065 23.11 3.55084 23.6397C3.83103 24.1693 4.38109 24.5006 4.98032 24.5006H25.0197C25.619 24.5006 26.169 24.1693 26.4492 23.6397C26.7295 23.1099 26.6937 22.4687 26.3566 21.9734Z" fill="white"/>
</svg>
