<svg width="10" height="11" viewBox="0 0 10 11" fill="none" xmlns="http://www.w3.org/2000/svg">
<path d="M7.45295 2.24099C7.83719 2.24099 8.14646 1.93476 8.14646 1.55414V0.834222C8.14646 0.452908 7.83719 0.145996 7.45295 0.145996C7.07044 0.145996 6.76013 0.452908 6.76013 0.834222V1.55414C6.76013 1.93476 7.07044 2.24099 7.45295 2.24099Z" fill="#B5B5B5"/>
<path d="M9.91774 1.33779H8.52066V1.68616C8.52066 2.26484 8.04825 2.73439 7.46443 2.73439C6.8806 2.73439 6.40889 2.26484 6.40889 1.68616V1.33779H3.59216V1.68616C3.59216 2.26484 3.11976 2.73439 2.53593 2.73439C1.9528 2.73439 1.48109 2.26484 1.48109 1.68616V1.33779L0.0722046 1.31989V10.0641L0.776474 10.0644H9.22424L9.92781 10.062L9.91774 1.33779ZM9.22424 9.3687H0.776474V3.78159H9.22424C9.22424 3.78159 9.22424 9.3687 9.22424 9.3687Z" fill="#B5B5B5"/>
<path d="M2.52554 2.24099C2.90874 2.24099 3.21766 1.93476 3.21766 1.55414V0.834222C3.21766 0.452908 2.90874 0.145996 2.52554 0.145996C2.14234 0.145996 1.83203 0.452908 1.83203 0.834222V1.55414C1.83203 1.93476 2.14269 2.24099 2.52554 2.24099Z" fill="#B5B5B5"/>
<path d="M3.45508 7.85829C3.71749 7.63474 3.91048 7.27099 3.91048 6.74604C3.91048 6.26139 3.72895 5.92348 3.44259 5.71267C3.17948 5.5177 2.83585 5.41919 2.30583 5.41919C1.99517 5.41919 1.69354 5.44399 1.46515 5.4805V8.17141C1.61718 8.19173 1.85008 8.21205 2.17497 8.21205C2.7168 8.21205 3.16352 8.09769 3.45508 7.85829ZM2.08924 5.92003C2.14269 5.90729 2.23641 5.89557 2.37178 5.89557C2.9136 5.89557 3.25099 6.19697 3.25099 6.76671C3.25099 7.42118 2.87612 7.73153 2.30583 7.72705C2.2319 7.72705 2.14234 7.72706 2.08889 7.71569L2.08924 5.92003Z" fill="#B5B5B5"/>
<path d="M4.89899 7.47898H5.69004L5.9042 8.18409H6.58139L5.71989 5.43945H4.89899L4.05762 8.18409H4.70288L4.89899 7.47898ZM5.15272 6.43287C5.19889 6.27442 5.24019 6.06671 5.2808 5.90344H5.28879C5.33009 6.06671 5.37903 6.27063 5.42902 6.43287L5.60048 7.01569H4.98889L5.15272 6.43287Z" fill="#B5B5B5"/>
<path d="M7.19785 8.18446H7.8209V7.03914L8.73135 5.43982H8.03021L7.75079 6.09911C7.66887 6.29407 7.60362 6.45321 7.54183 6.62441H7.53315C7.4679 6.44529 7.40716 6.2989 7.32108 6.09911L7.04166 5.43982H6.32385L7.19785 7.0598C7.19785 7.0598 7.19785 8.18446 7.19785 8.18446Z" fill="#B5B5B5"/>
</svg>
