<svg width="10" height="10" viewBox="0 0 10 10" fill="none" xmlns="http://www.w3.org/2000/svg">
<path d="M5 0C2.243 0 0 2.243 0 5C0 7.757 2.243 10 5 10C7.757 10 10 7.757 10 5C10 2.243 7.757 0 5 0ZM5 8.93608C2.82966 8.93608 1.06381 7.17044 1.06381 5C1.06381 2.82956 2.82966 1.06392 5 1.06392C7.17034 1.06392 8.93619 2.82956 8.93619 5C8.93619 7.17044 7.17034 8.93608 5 8.93608Z" fill="#CFCFCF"/>
<path d="M7.6058 4.8456H5.35878V2.14387C5.35878 1.91651 5.17445 1.73218 4.94709 1.73218C4.71974 1.73218 4.5354 1.91651 4.5354 2.14387V5.25729C4.5354 5.48465 4.71974 5.66898 4.94709 5.66898H7.6058C7.83316 5.66898 8.01749 5.48465 8.01749 5.25729C8.01749 5.02993 7.83316 4.8456 7.6058 4.8456Z" fill="#CFCFCF"/>
</svg>
