<svg width="10" height="10" viewBox="0 0 10 10" fill="none" xmlns="http://www.w3.org/2000/svg">
<g clip-path="url(#clip0)">
<path d="M5 2.01953C3.08939 2.01953 1.35676 3.06484 0.0782449 4.7627C-0.0260816 4.90181 -0.0260816 5.09614 0.0782449 5.23524C1.35676 6.93515 3.08939 7.98046 5 7.98046C6.91061 7.98046 8.64324 6.93515 9.92175 5.23729C10.0261 5.09818 10.0261 4.90385 9.92175 4.76475C8.64324 3.06484 6.91061 2.01953 5 2.01953ZM5.13706 7.0988C3.86877 7.17858 2.82142 6.13327 2.9012 4.86294C2.96666 3.81558 3.81559 2.96665 4.86294 2.90119C6.13123 2.82141 7.17858 3.86672 7.0988 5.13705C7.0313 6.18236 6.18237 7.03129 5.13706 7.0988ZM5.07364 6.12918C4.39041 6.17213 3.82582 5.60959 3.87082 4.92635C3.90559 4.36176 4.36381 3.90559 4.9284 3.86877C5.61164 3.82581 6.17623 4.38836 6.13123 5.07159C6.09441 5.63823 5.63619 6.0944 5.07364 6.12918Z" fill="#B5B5B5"/>
</g>
<defs>
<clipPath id="clip0">
<rect width="10" height="10" fill="white"/>
</clipPath>
</defs>
</svg>
