<svg width="31" height="31" viewBox="0 0 31 31" fill="none" xmlns="http://www.w3.org/2000/svg">
<path d="M0.119293 9.71105C0.239895 9.54532 0.434334 9.45032 0.652731 9.45032H3.03934C3.35553 9.45032 3.71373 9.6418 3.89094 9.90582L6.23029 13.3884H26.7861C28.4007 13.3882 31 15.9922 31 17.6096C31 19.2982 28.6226 19.2982 27.4801 19.2982C27.3514 19.2982 20.8487 19.2952 20.8487 19.2952L6.87547 21.5288C6.78785 21.5427 6.68596 21.5498 6.57241 21.5498C6.39126 21.5498 6.20896 21.5312 6.07261 21.4989L5.28828 21.3133C4.88316 21.2175 4.8423 20.9315 4.83935 20.8462C4.83639 20.7607 4.85789 20.4729 5.25547 20.3495L8.65743 19.2951H3.64317H3.56884C3.21081 19.2951 2.85868 19.0401 2.74957 18.7021L0.0351181 10.3001C-0.0323219 10.0919 -0.00163651 9.87694 0.119293 9.71105ZM26.0379 16.834C26.8652 16.834 29.347 16.834 29.347 16.834C29.347 16.834 29.7026 16.8374 29.5669 16.6005C29.4743 16.439 29.361 16.2395 29.2957 16.1537C28.6495 15.3024 28.0342 14.5845 27.3778 14.441C27.0869 14.3773 26.3106 14.3775 25.9537 14.3775C25.776 14.3775 25.7944 14.5981 25.7944 14.5981V16.6356C25.7944 16.6358 25.7575 16.834 26.0379 16.834ZM21.6923 16.1776C21.6923 16.5401 21.9862 16.834 22.3486 16.834H23.1691C23.5315 16.834 23.8254 16.5401 23.8254 16.1776V15.6854C23.8254 15.3229 23.5315 15.029 23.1691 15.029H22.3486C21.9862 15.029 21.6923 15.3229 21.6923 15.6854V16.1776ZM18.7388 16.1776C18.7388 16.5401 19.0327 16.834 19.3951 16.834H20.2155C20.578 16.834 20.8719 16.5401 20.8719 16.1776V15.6854C20.8719 15.3229 20.578 15.029 20.2155 15.029H19.3951C19.0327 15.029 18.7388 15.3229 18.7388 15.6854V16.1776ZM15.7853 16.1776C15.7853 16.5401 16.0791 16.834 16.4416 16.834H17.262C17.6245 16.834 17.9184 16.5401 17.9184 16.1776V15.6854C17.9184 15.3229 17.6245 15.029 17.262 15.029H16.4416C16.0791 15.029 15.7853 15.3229 15.7853 15.6854V16.1776ZM12.8317 16.1776C12.8317 16.5401 13.1256 16.834 13.4881 16.834H14.3085C14.671 16.834 14.9648 16.5401 14.9648 16.1776V15.6854C14.9648 15.3229 14.671 15.029 14.3085 15.029H13.4881C13.1256 15.029 12.8317 15.3229 12.8317 15.6854V16.1776ZM9.87822 16.1776C9.87822 16.5401 10.1721 16.834 10.5346 16.834H11.355C11.7174 16.834 12.0113 16.5401 12.0113 16.1776V15.6854C12.0113 15.3229 11.7174 15.029 11.355 15.029H10.5346C10.1721 15.029 9.87822 15.3229 9.87822 15.6854V16.1776ZM6.9247 16.1776C6.9247 16.5401 7.21857 16.834 7.58104 16.834H8.40146C8.76392 16.834 9.0578 16.5401 9.0578 16.1776V15.6854C9.0578 15.3229 8.76392 15.029 8.40146 15.029H7.58104C7.21857 15.029 6.9247 15.3229 6.9247 15.6854V16.1776Z" fill="#FF6B00"/>
</svg>
