<svg width="30" height="30" viewBox="0 0 30 30" fill="none" xmlns="http://www.w3.org/2000/svg">
<g clip-path="url(#clip0)">
<path d="M15.3785 0.00619176C9.28614 -0.199125 4.28296 4.67842 4.28296 10.7244C4.28296 17.586 10.8677 22.5656 14.5584 29.727C14.7458 30.0906 15.2692 30.0911 15.4573 29.7275C18.7961 23.2837 24.5025 18.9628 25.5601 12.7549C26.6551 6.331 21.8913 0.225761 15.3785 0.00619176ZM15.0073 16.3419C11.9049 16.3419 9.38982 13.8268 9.38982 10.7244C9.38982 7.62207 11.905 5.10692 15.0073 5.10692C18.1097 5.10692 20.6249 7.62207 20.6249 10.7244C20.6249 13.8268 18.1097 16.3419 15.0073 16.3419Z" fill="white"/>
</g>
<defs>
<clipPath id="clip0">
<rect width="30" height="30" fill="white"/>
</clipPath>
</defs>
</svg>
