<svg width="45" height="45" viewBox="0 0 45 45" fill="none" xmlns="http://www.w3.org/2000/svg">
<path fill-rule="evenodd" clip-rule="evenodd" d="M45 22.5C45 34.9264 34.9264 45 22.5 45C10.0736 45 0 34.9264 0 22.5C0 10.0736 10.0736 0 22.5 0C34.9264 0 45 10.0736 45 22.5ZM16.4183 22.5003C16.3124 21.8958 16.546 21.263 17.1038 20.8348L24.4669 15.1832C25.3431 14.5107 26.6876 14.5976 27.47 15.3773L28.0661 15.9714C28.8485 16.7511 28.7724 17.9284 27.8962 18.601L22.8165 22.4999L27.8963 26.399C28.7725 27.0715 28.8486 28.2488 28.0662 29.0286L27.4701 29.6227C26.6877 30.4024 25.3432 30.4893 24.467 29.8167L17.1039 24.1651C16.5462 23.7371 16.3127 23.1046 16.4183 22.5003Z" fill="white"/>
</svg>
