<svg width="31" height="31" viewBox="0 0 31 31" fill="none" xmlns="http://www.w3.org/2000/svg">
<path d="M16.7526 26.6406L19.1745 24.2188C19.7988 23.5944 20.8887 23.5944 21.513 24.2188L23.9349 26.6406H26.9245L23.3086 23.0248C22.5167 22.2328 21.4636 21.7969 20.3437 21.7969C19.2234 21.7969 18.1708 22.2328 17.3789 23.0248L14.1031 26.3006L14.3157 26.6406H16.7526Z" fill="#FF6B00"/>
<path d="M28.5781 27.6094H13.778L9.94131 21.4704C9.31066 20.4615 8.2242 19.8594 7.03506 19.8594C5.611 19.8594 4.35744 20.7172 3.84061 22.0444L1.52094 28.0104C1.47589 28.1262 1.45312 28.2473 1.45312 28.3713V28.5515C1.45312 29.1003 1.89972 29.5469 2.44852 29.5469C2.83359 29.5469 3.18719 29.3212 3.34994 28.9724L6.34241 22.5607L7.22009 22.9705L6.26636 25.0136L7.32859 27.1371C8.07163 28.6237 9.56592 29.5469 11.2283 29.5469H28.5781C29.1124 29.5469 29.5469 29.1124 29.5469 28.5781C29.5469 28.0439 29.1124 27.6094 28.5781 27.6094Z" fill="#FF6B00"/>
<path d="M8.23438 18.8906C9.57194 18.8906 10.6562 17.8063 10.6562 16.4688C10.6562 15.1312 9.57194 14.0469 8.23438 14.0469C6.89681 14.0469 5.8125 15.1312 5.8125 16.4688C5.8125 17.8063 6.89681 18.8906 8.23438 18.8906Z" fill="#FF6B00"/>
<path d="M19.56 10.1719H16.2837L16.7681 11.1406H19.0757L19.56 10.1719Z" fill="#FF6B00"/>
<path d="M24.4038 10.1719H21.1275L21.6118 11.1406H23.9194L24.4038 10.1719Z" fill="#FF6B00"/>
<path d="M11.44 10.1719L11.9243 11.1406H14.2319L14.7163 10.1719H11.44Z" fill="#FF6B00"/>
<path d="M23.2393 9.20315H29.4694L28.4536 7.47684C26.5951 4.31726 23.3972 2.18165 19.8318 1.61154C21.2723 2.80746 23.1032 5.12326 23.2393 9.20315ZM27.6191 7.968L27.2141 8.23537L26.7966 8.48046L26.784 8.45867C26.5994 8.14576 26.3979 7.84157 26.1848 7.55482L26.9622 6.97696C27.1957 7.29132 27.4166 7.62457 27.6191 7.968ZM22.9841 3.63187C24.3689 4.33131 25.5735 5.28649 26.5631 6.47031L25.8196 7.09176C24.9153 6.00918 23.8143 5.13585 22.5472 4.49648L22.9841 3.63187Z" fill="#FF6B00"/>
<path d="M29.2475 10.1719H25.9712L26.4556 11.1406H28.7632L29.2475 10.1719Z" fill="#FF6B00"/>
<path d="M22.2604 9.20315C22.0633 3.86389 18.7371 1.90023 17.9219 1.50208C17.1067 1.90023 13.7805 3.86389 13.5833 9.20315H22.2604ZM18.1398 2.48342L18.6184 3.32526C18.4527 3.41923 18.1931 3.58343 17.8957 3.83143L17.2762 3.08695C17.6283 2.7939 17.9403 2.59676 18.1398 2.48342ZM16.5293 3.81254L17.2549 4.45483C17.0592 4.6757 16.8756 4.91595 16.71 5.16879L15.9001 4.63695C16.0914 4.34584 16.3031 4.06829 16.5293 3.81254ZM16.2677 5.95542C16.1394 6.22473 16.026 6.50809 15.9301 6.79775L15.0108 6.49404C15.1193 6.16564 15.2476 5.84401 15.3929 5.53886L16.2677 5.95542Z" fill="#FF6B00"/>
<path d="M9.38816 11.1406L9.87253 10.1719H6.59622L7.0806 11.1406H9.38816Z" fill="#FF6B00"/>
<path d="M16.012 1.61099C12.4465 2.1811 9.24819 4.31671 7.39012 7.47629L6.37439 9.20309H12.6044C12.7405 5.1232 14.5715 2.8074 16.012 1.61099Z" fill="#FF6B00"/>
<path d="M18.8906 21.0369V12.1094H16.9531V22.1049C17.5213 21.6075 18.1791 21.2447 18.8906 21.0369Z" fill="#FF6B00"/>
</svg>
