<svg width="15" height="15" viewBox="0 0 15 15" fill="none" xmlns="http://www.w3.org/2000/svg">
<path d="M8.0853 11.6669L14.7604 4.99172C14.9149 4.83733 15 4.63123 15 4.41148C15 4.19173 14.9149 3.98563 14.7604 3.83124L14.2689 3.33966C13.9487 3.01978 13.4282 3.01978 13.1084 3.33966L7.50311 8.94498L1.89157 3.33344C1.73706 3.17905 1.53108 3.09381 1.31145 3.09381C1.09158 3.09381 0.885602 3.17905 0.730968 3.33344L0.239632 3.82502C0.0851202 3.97953 0 4.18551 0 4.40526C0 4.62501 0.0851202 4.83111 0.239632 4.9855L6.9208 11.6669C7.0758 11.8217 7.28275 11.9067 7.50274 11.9062C7.7236 11.9067 7.93042 11.8217 8.0853 11.6669Z" fill="#B5B5B5"/>
</svg>
