<svg width="15" height="15" viewBox="0 0 15 15" fill="none" xmlns="http://www.w3.org/2000/svg">
<path d="M3.85281 13.8281H1.77838C1.52825 13.8281 1.37734 13.6885 1.30966 13.6053C1.19283 13.4616 1.14756 13.2745 1.18556 13.092C1.79403 10.1694 4.37332 8.03493 7.35094 7.96567C7.40054 7.96752 7.45026 7.96875 7.50027 7.96875C7.55072 7.96875 7.60087 7.96749 7.65091 7.96562C8.37903 7.98223 9.09024 8.11913 9.7672 8.37334C10.0701 8.48716 10.408 8.33373 10.5217 8.03077C10.6355 7.72784 10.4821 7.39002 10.1791 7.27626C10.0821 7.23981 9.98447 7.20571 9.88632 7.17337C10.8561 6.44593 11.4846 5.28718 11.4846 3.98438C11.4846 1.7874 9.69727 0 7.50027 0C5.30327 0 3.51589 1.7874 3.51589 3.98438C3.51589 5.28835 4.14554 6.44801 5.11676 7.17533C4.22699 7.46824 3.39203 7.92375 2.6613 8.52481C1.3215 9.62687 0.389945 11.164 0.0382943 12.8532C-0.0719205 13.3825 0.0600912 13.9261 0.400492 14.3447C0.739164 14.7611 1.2414 15 1.77838 15H3.85281C4.17642 15 4.43874 14.7377 4.43874 14.4141C4.43874 14.0904 4.17642 13.8281 3.85281 13.8281ZM4.68777 3.98438C4.68777 2.43354 5.94944 1.17188 7.50027 1.17188C9.0511 1.17188 10.3128 2.43354 10.3128 3.98438C10.3128 5.48927 9.12466 6.72182 7.6372 6.79351C7.59159 6.79269 7.54597 6.79198 7.50027 6.79198C7.45445 6.79198 7.40866 6.79266 7.36289 6.79348C5.87564 6.72158 4.68777 5.48912 4.68777 3.98438Z" fill="white"/>
<path d="M14.5514 10.0959C14.3006 9.53487 13.7357 9.17136 13.1107 9.16992H11.2834C11.2821 9.16992 11.2809 9.16992 11.2795 9.16992C10.6204 9.16992 10.0453 9.5584 9.81385 10.1604C9.78306 10.2405 9.74541 10.3414 9.70613 10.459H5.86982C5.71141 10.459 5.55977 10.5231 5.44941 10.6368L4.44288 11.6735C4.2212 11.9019 4.22231 12.2654 4.44538 12.4924L5.47077 13.5357C5.58092 13.6478 5.73151 13.7109 5.88866 13.7109H7.79295C8.11657 13.7109 8.37889 13.4486 8.37889 13.125C8.37889 12.8014 8.11657 12.539 7.79295 12.539H6.13434L5.68235 12.0791L6.11761 11.6309H10.1457C10.4156 11.6309 10.6506 11.4464 10.7148 11.1843C10.7622 10.9907 10.8217 10.8046 10.9077 10.5809C10.9644 10.4333 11.1068 10.3418 11.281 10.3418C11.2813 10.3418 11.2817 10.3418 11.2821 10.3418H13.1094C13.2751 10.3422 13.4177 10.4312 13.4816 10.5742C13.6389 10.9261 13.8267 11.4709 13.8281 12.0679C13.8295 12.6693 13.6419 13.2266 13.4842 13.5882C13.4206 13.7341 13.2768 13.8281 13.1162 13.8281C13.1159 13.8281 13.1156 13.8281 13.1153 13.8281H11.2659C11.1038 13.8277 10.9519 13.7234 10.8881 13.5686C10.8196 13.4025 10.7602 13.2128 10.7065 12.9886C10.6312 12.6739 10.3149 12.4799 10.0003 12.5551C9.68559 12.6305 9.49153 12.9467 9.56685 13.2614C9.63485 13.5455 9.71269 13.7922 9.80477 14.0154C10.0508 14.612 10.6233 14.9985 11.2645 15H13.1139C13.1152 15 13.1163 15 13.1176 15C13.7431 14.9999 14.3084 14.63 14.5584 14.0566C14.7609 13.5922 15.0019 12.8697 15 12.0651C14.9981 11.2627 14.755 10.5514 14.5514 10.0959Z" fill="white"/>
<path d="M12.627 12.6562C12.9506 12.6562 13.2129 12.3939 13.2129 12.0703C13.2129 11.7467 12.9506 11.4844 12.627 11.4844C12.3033 11.4844 12.041 11.7467 12.041 12.0703C12.041 12.3939 12.3033 12.6562 12.627 12.6562Z" fill="white"/>
</svg>
